<svg id="visual" viewBox="0 0 900 600" width="900" height="600" xmlns="http://www.w3.org/2000/svg" xmlns:xlink="http://www.w3.org/1999/xlink" version="1.1"><rect x="0" y="0" width="900" height="600" fill="#0072fd"></rect><path d="M0 403L129 381L257 437L386 433L514 405L643 393L771 407L900 366L900 601L771 601L643 601L514 601L386 601L257 601L129 601L0 601Z" fill="#3b82f6"></path><path d="M0 428L129 479L257 436L386 426L514 416L643 472L771 424L900 417L900 601L771 601L643 601L514 601L386 601L257 601L129 601L0 601Z" fill="#488bf9"></path><path d="M0 498L129 503L257 453L386 473L514 483L643 495L771 459L900 484L900 601L771 601L643 601L514 601L386 601L257 601L129 601L0 601Z" fill="#5594fb"></path><path d="M0 535L129 510L257 498L386 487L514 526L643 529L771 502L900 531L900 601L771 601L643 601L514 601L386 601L257 601L129 601L0 601Z" fill="#629dfd"></path><path d="M0 528L129 547L257 525L386 550L514 569L643 541L771 569L900 546L900 601L771 601L643 601L514 601L386 601L257 601L129 601L0 601Z" fill="#6ea6ff"></path></svg>